# xmcd
#
# Track frame offsets:
#	150
#	11732
#	28902
#	45591
#	58444
#	74747
#	91523
#	110023
#	125275
#	139535
#
# Disc length: 2106 seconds
#
# Revision: 1
# Processed by: cddbd v1.5.2PL0 Copyright (c) Steve Scherf et al.
# Submitted via: audiograbber 1.83.01
#
DISCID=8d08380a
DTITLE=Country Delight - unplugged
DYEAR=2011
DGENRE=Country
TTITLE0=My Dixi Darling
TTITLE1=Tequila sunrise
TTITLE2=This is a life
TTITLE3=Mama tried
TTITLE4=Eastbound and down
TTITLE5=Handle me with care
TTITLE6=Honky Tonk Woman
TTITLE7=Red Staggerwing
TTITLE8=How long
TTITLE9=Denmark
EXTD=
EXTT0=
EXTT1=
EXTT2=
EXTT3=
EXTT4=
EXTT5=
EXTT6=
EXTT7=
EXTT8=
EXTT9=
PLAYORDER=
